# xmcd
# 
# Track frame offsets:
#     150
#     18322
#     31037
#     44427
#     62790
#     78340
#     87832
#     99687
#     116115
#     132135
#     148497
#     165557
#     178255
# 
# Disc length: 2700
# 
# Revision: 1
# Processed by: cddbd v1.5.2PL0 Copyright (c) Steve Scherf et al.
# Submitted via: fre:ac v1.0.17
# 
DISCID=b00a8a0d
DTITLE=Brenn Hill - Call You Cowboy
DYEAR=2001
DGENRE=Country
TTITLE0=Call You Cowboy
TTITLE1=Roundup Fire
TTITLE2=Lady Idaho
TTITLE3=Nighthorse
TTITLE4=Rewin the West
TTITLE5=Cottonwood
TTITLE6=Greys River Road
TTITLE7=Wyoming Wind
TTITLE8=Nights Like This
TTITLE9=Fall Comin On
TTITLE10=Bitter Creek
TTITLE11=Powder River Queen
TTITLE12=Hill Family Song
EXTD=YEAR: 2001
EXTT0=
EXTT1=
EXTT2=
EXTT3=
EXTT4=
EXTT5=
EXTT6=
EXTT7=
EXTT8=
EXTT9=
EXTT10=
EXTT11=
EXTT12=
PLAYORDER=
